<?xml version="1.0" encoding="UTF-8"?>
<!DOCTYPE svg PUBLIC "-//W3C//DTD SVG 1.0//EN" "http://www.w3.org/TR/2001/REC-SVG-20010904/DTD/svg10.dtd">
<!-- Creator: CorelDRAW 2018 (64-Bit) -->
<svg xmlns="http://www.w3.org/2000/svg" xml:space="preserve" width="172.544mm" height="27.4412mm" version="1.0" style="shape-rendering:geometricPrecision; text-rendering:geometricPrecision; image-rendering:optimizeQuality; fill-rule:evenodd; clip-rule:evenodd"
viewBox="0 0 17257.9 2744.68"
 xmlns:xlink="http://www.w3.org/1999/xlink">
 <defs>
  <style type="text/css">
   <![CDATA[
    .fil0 {fill:#0c4e93}
    .fil1 {fill:#0c4e93;fill-rule:nonzero}
   ]]>
  </style>
 </defs>
 <g id="Warstwa_x0020_1">
  <metadata id="CorelCorpID_0Corel-Layer"/>
  <g id="_2194706357200">
   <path class="fil0" d="M16852.26 251.85l63.69 0c27.07,0 46.22,1.76 55.82,6.13 10.58,3.48 18.31,9.58 23.56,17.43 6.21,8.72 8.75,17.47 8.75,27.91 0.04,15.72 -6.14,27.96 -17.49,37.54 -12.1,9.58 -34.02,14.84 -66.34,14.84l-67.99 0 0 -103.85zm405.64 145.46l0 -48.86c-3.51,-47.13 -17.29,-92.88 -41.85,-136.72 -28.66,-51.5 -68.88,-91.61 -120.36,-118.62 -51.37,-27.99 -103.8,-41.95 -157.93,-41.95 -53.98,0 -107.33,13.96 -157.93,41.95l0.07 0 0 0c-51.41,27.02 -91.71,67.12 -120.46,118.62 -28.69,51.45 -43.65,105.55 -43.65,161.4 0.11,55 13.97,108.2 42.77,159.68 28.02,51.48 68.02,90.73 118.66,118.67 51.55,28.78 104.69,42.77 160.54,42.77 55.82,0 109.06,-13.99 159.66,-42.77 51.66,-27.95 90.72,-67.19 118.63,-118.67 24.61,-43.9 38.34,-89.06 41.85,-135.51zm-405.64 152.98l0 -146.62 33.21 0c19.23,0 33.95,3.48 44.42,11.37 14.89,11.33 34.02,37.49 58.47,81.16l30.6 54.09 68.09 0 -41.88 -68.05c-20.04,-31.46 -37.58,-54.1 -51.59,-68.09 -6.98,-6.99 -17.43,-13.05 -29.68,-18.29 30.67,-2.63 54.13,-13.09 72.44,-31.47 18.38,-19.15 27.07,-40.96 27.07,-66.25 0,-17.47 -5.26,-34.95 -16.59,-50.65 -10.3,-15.71 -25.33,-27.02 -42.73,-33.15 -18.31,-6.14 -48.06,-9.58 -89.02,-9.58l-118.66 0 0 345.54 55.85 0 0 0zm217.28 -410.98c42.77,22.67 75.87,55.86 100.28,99.48 23.6,42.76 35.78,87.26 35.78,134.35 0.15,46.25 -12.17,90.77 -35.78,132.64 -23.49,42.76 -56.73,75.95 -98.55,99.47 -42.76,23.54 -87.26,35.78 -133.52,35.78 -46.15,0 -90.75,-12.23 -133.52,-35.78 -42.73,-23.52 -75.9,-56.71 -99.47,-99.47 -23.49,-41.87 -35.74,-86.39 -35.74,-132.64 0.03,-47.09 12.17,-91.59 36.62,-134.35 23.64,-43.66 57.59,-76.81 100.35,-99.48 42.84,-23.57 86.35,-34.91 131.76,-34.91 44.6,0 88.99,11.33 131.72,34.91l0.07 0 0 0z"/>
   <path class="fil1" d="M6.66 2649.39l319.68 -2564.25 5.17 -41.51 410.69 0 -6.67 53.41 -166.54 1335.96 744.8 -670.28 13.6 -12.27 552.64 0 -96.17 83.3 -766.87 664.14 618.22 1134.98 38.09 69.9 -497.05 0 -13.45 -25.78 -467.64 -896.63 -189.67 163.09 -89.49 717.76 -5.15 41.56 -410.85 0 6.66 -53.38 0 0zm1793.76 -970.53c5.16,-35.4 11.12,-69.34 17.93,-101.93 9.64,-46.1 20.97,-90.46 34.04,-132.94 67.86,-220.95 182.09,-394.13 342.67,-519.3l0.03 0 0.14 -0.09c25.49,-19.88 51.95,-38.53 79.27,-56.1 27.43,-17.61 54.95,-33.59 82.59,-47.86 144.78,-74.89 303.58,-112.58 476.54,-112.58l0.16 0 0 0.21c134.11,0 253.74,22.16 358.77,66.46 17.89,7.55 34.79,15.44 50.65,23.65 84.69,43.65 158.63,103.05 221.82,178.31l0 0c75.88,89.74 127.57,196 155.23,318.75 27.2,120.5 31.16,257.4 12.06,410.57l0 0.16 -0.04 0.46 -0.03 0c-4.48,36.04 -9.28,69.14 -14.39,99.29 -5.3,31.33 -11.4,62.64 -18.28,93.91 -34.58,157.1 -85.43,287.14 -152.19,390.27 -46.79,72.33 -101.06,136.36 -162.69,192.21 -61.68,55.77 -131,103.62 -207.79,143.52 -76.63,39.59 -155.38,69.22 -236.35,89.07 -81.18,19.84 -164.03,29.78 -248.59,29.78 -135.99,0 -256.94,-22.01 -362.78,-66.16 -106.97,-44.59 -198,-111.64 -273.04,-201.3l-0.15 -0.21c-21.02,-25.12 -40.17,-51.82 -57.41,-80.08 -17.44,-28.54 -32.79,-58.17 -46.02,-88.87 -67.74,-157.4 -87.14,-353.34 -57.84,-587.85l5.15 -41.35 0.56 0 0 0zm411.84 53.41c-14.19,114.52 -14.23,214.15 -0.11,298.84 13.52,81.12 40.29,148.21 80.2,201.21 40.05,53.23 87.33,93 141.81,119.18 54.88,26.44 118.05,39.6 189.51,39.6l0.15 0 0 0.21c71.41,0 138.69,-13.71 201.76,-41.05 11.64,-5.03 21.81,-9.79 30.49,-14.22 51.71,-26.61 100.77,-63.17 147.06,-109.48l-0.11 -0.07 0.21 -0.23 0.08 0.09c15.36,-15.43 29.78,-31.87 43.26,-49.23 13.52,-17.4 26.44,-36.22 38.76,-56.44 63.91,-105.16 106.39,-242.04 127.37,-410.39l0.06 -0.46 0 -0.16c3.83,-30.51 6.61,-60.51 8.26,-89.87 1.7,-29.5 2.27,-57.24 1.7,-83.18 -2.91,-132.57 -33.51,-237.42 -91.7,-314.33l-0.08 0.1c-40.31,-53.13 -87.6,-92.76 -141.82,-118.92 -54.51,-26.36 -116.99,-39.47 -187.51,-39.47l-0.14 0 0 -0.22c-71.84,0 -139.43,13.58 -202.62,40.56 -10.27,4.38 -20.45,9.12 -30.55,14.31 -51.91,26.36 -100.97,62.43 -147.08,108.05l0.07 0.07 -0.21 0.17 -0.35 0.25c-14.98,14.88 -29.42,31.15 -43.24,48.68 -13.67,17.36 -26.62,35.91 -38.76,55.58 -62.7,101.41 -104.51,232.39 -125.45,392.51l-1.02 8.31 0 0zm1576.57 917.12l231.47 -1857.38 5.19 -41.56 376.99 0 -6.7 53.62 -14.26 113.77c51.55,-46.65 109,-86.93 172.45,-120.62l0.03 0.07c15.66,-8.34 31.37,-16.1 47.04,-23.16 16.12,-7.2 32.29,-13.77 48.51,-19.7 84.05,-30.81 173.47,-46.36 267.64,-46.36 72.54,0 138.17,7.77 196.96,23.2 60.05,15.78 112.62,39.72 157.72,71.69l-0.07 0.11c45.73,32.22 83.2,70.64 112.45,115.39 13.86,21.2 25.9,43.77 36.06,67.61 75.66,-81.54 156.59,-145.28 242.9,-191 109.1,-57.86 226.43,-86.81 351.93,-86.81l0 -0.21c97.95,0 183.45,13.88 256.66,41.61 75.27,28.49 137.12,71.48 185.68,128.9 48.65,57.43 81.26,129.57 97.77,216.21 15.84,83.3 16.83,180.33 3.03,291.19l-158.78 1275.24 -5.15 41.56 -408.28 0 6.64 -53.38 145.9 -1170.22c7.48,-61.27 11.61,-113.67 12.14,-157.33 0.53,-41.22 -2.09,-73.68 -7.8,-97.48l-0.11 0.03 -0.07 -0.21 0 -0.16c-1.65,-6.59 -3.45,-12.55 -5.36,-17.85l-0.21 0c-2.43,-6.72 -4.76,-12.33 -6.88,-16.82 -13.41,-27.53 -34.3,-51.38 -62.66,-71.08 -5.89,-3.93 -11.75,-7.54 -17.54,-10.68 -6.42,-3.54 -12.73,-6.62 -18.9,-9.33 -34.3,-14.85 -74.11,-22.5 -119.55,-22.5l0 0.17c-59.59,0 -115.02,9.89 -166.4,29.54 -51.44,19.74 -99.29,49.45 -143.71,89.14l-0.32 0.17 -0.21 0.25 0 -0.04c-11.61,10.4 -22.86,21.98 -33.67,34.67 -10.83,12.67 -21.09,26.33 -30.77,40.97 -51.13,77.53 -85.11,181.35 -101.2,311.25l-134.61 1079.36 -5.15 41.56 -409.97 0 6.59 -53.38 150.32 -1206.57 0 -0.18c8.29,-66.05 9.49,-123.64 3.63,-172.61 -5.5,-45.86 -17.07,-83.24 -34.76,-112.08l-0.14 -0.21 -0.1 0.07c-4.7,-7.67 -9.67,-14.56 -14.93,-20.56 -5.75,-6.52 -11.82,-12.38 -18.2,-17.43 -36.63,-29.2 -91.5,-43.91 -164.67,-43.91l-0.21 0 0 -0.17c-39.7,0.04 -78.76,5.28 -117.08,15.91 -6.28,1.7 -12.55,3.63 -18.73,5.63 -31.83,10.29 -63.33,24.5 -94.46,42.59l-0.31 0.16 0.03 0.07c-10.9,6.24 -20.81,12.47 -29.68,18.58 -9.73,6.75 -19.01,13.74 -27.74,20.97 -46.01,37.98 -83.77,86.19 -113.05,144.7 -21.09,42.2 -39.45,94 -55.04,155.32 -16.02,63.03 -29.18,135.71 -39.38,217.99l0 0.16 -120.25 963.56 -5.15 41.38 -410.15 0 6.67 -53.38 0 0zm3058.69 0l194.49 -1559.16 -277.63 0 6.63 -53.39 30.32 -244.83 5.15 -41.56 277.73 0 19.4 -155.98 0 -0.21 0.04 -0.41c2.19,-17.34 4.62,-34.6 7.16,-51.66 2.79,-18.12 5.43,-34.19 8.01,-48.24 14.96,-81.42 34.12,-145.86 57.33,-192.97l0.18 -0.16c22.4,-44.94 50.49,-85.67 84.26,-122.02 33.7,-36.28 73.04,-68.29 118.06,-95.89 45.8,-28.09 98.69,-48.97 158.68,-62.75 58.89,-13.44 124.31,-20.15 196.43,-20.15l0.46 0 0 0.21c31.76,0 63.26,1.17 94.53,3.44 7.86,0.58 18.48,1.52 32,2.83 55.01,5.3 112.49,14.01 172.38,26.33l50.84 10.43 -14.57 49.48 -81.19 274.54 -12.07 40.87 -41.92 -7.83 -0.56 -0.1 0 -0.04c-8.58,-1.61 -17.04,-3.1 -25.31,-4.41 -8.08,-1.31 -16.47,-2.58 -25.2,-3.75 -41.99,-5.75 -83.31,-8.65 -123.67,-8.65 -43.69,0 -80.74,4.38 -111.11,13.23 -27.78,8.13 -50.18,20.01 -67.08,35.63l-0.35 0.39c-16.93,15.29 -31.48,38.62 -43.51,69.76 -13.4,34.88 -23.35,78.3 -29.82,130.26l-14.64 117.84 361.99 0 -6.74 53.62 -30.63 244.79 -5.19 41.37 -361.56 0 -195.97 1570.98 -5.15 41.56 -408.85 0 6.64 -53.38 0 0zm924.32 -970.53c23.67,-160.2 65.91,-301.16 126.79,-422.91 66.86,-133.68 156.1,-244.2 267.91,-331.26l0 0 0.14 -0.09c26.05,-20.29 52.43,-38.97 79.08,-56.1 26.93,-17.29 54.51,-33.25 82.75,-47.86 144.77,-74.89 303.59,-112.58 476.52,-112.58l0.18 0 0 0.21c134.19,0.04 253.8,22.16 358.84,66.46 17.85,7.55 34.76,15.44 50.6,23.65 84.69,43.65 158.68,103.05 221.81,178.31l0 0c75.9,89.74 127.63,196 155.25,318.75 27.17,120.5 31.12,257.4 12.06,410.57 -15.31,122.77 -38.11,232.48 -68.55,329.17 -31.02,98.25 -69.75,183.36 -116.4,255.1l-0.07 -0.04c-13.41,20.78 -27,40.35 -40.72,58.57 -14.43,19.23 -29.29,37.54 -44.53,54.93 -79.33,90.69 -174.63,164.68 -285.18,222.09 -76.64,39.59 -155.39,69.22 -236.34,89.07 -81.19,19.84 -164.03,29.78 -248.58,29.78l-0.14 0 0 -0.17c-136.24,-0.04 -257.16,-21.98 -362.62,-65.99 -16.58,-6.89 -33.53,-14.81 -50.99,-23.68 -85.46,-43.61 -159.48,-102.84 -221.91,-177.62l0.11 -0.1c-74.99,-89.38 -125.83,-197.97 -152.57,-325.74 -26.19,-125.16 -29.22,-268.8 -9.14,-431l5.15 -41.52 0.56 0 0 0zm412.23 53.62c-14.32,114.46 -14.43,214.05 -0.31,298.63 13.51,81.3 40.22,148.38 80.17,201.21l0.1 0.12 0.14 0.18c11.15,14.86 22.97,28.82 35.5,41.73 12.56,13.03 25.45,24.72 38.64,35.09 69.05,54.47 154.87,81.67 257.12,81.67 72.08,0 139.27,-13.57 201.72,-40.63 63.06,-27.34 122.19,-68.64 177.42,-123.92l-0.07 -0.07 0.18 -0.23 0.1 0.09c15.31,-15.43 29.72,-31.84 43.19,-49.2 13.55,-17.43 26.47,-36.28 38.75,-56.47 63.9,-105.14 106.52,-242.12 127.77,-410.57l0.03 0 0.04 -0.28c3.74,-30.32 6.46,-60.39 8.11,-90.03 1.66,-29.5 2.23,-57.24 1.63,-83.18 -3.04,-132.57 -33.67,-237.42 -91.85,-314.33l-0.07 0.1c-40.37,-53.13 -87.69,-92.76 -141.85,-118.92 -54.55,-26.36 -117,-39.47 -187.47,-39.47l-0.18 0 0 -0.22c-71.87,0 -139.41,13.58 -202.6,40.56 -10.23,4.38 -20.46,9.12 -30.56,14.31 -51.91,26.36 -100.99,62.43 -147.07,108.05l0.07 0.07 -0.21 0.17 -0.14 0c-15.56,15.5 -30.07,31.77 -43.44,48.72l0 0.21c-13.65,17.34 -26.57,35.91 -38.71,55.58 -60.9,98.51 -102.01,224.7 -123.36,378.38l-2.79 22.65 0 0zm2093.36 934.29l-475.47 -1857.33 -15.13 -58.99 430.93 0 8.65 36.91 260.4 1112.34 0 0.18c14.14,60.85 27.28,122.63 39.27,185.2 2.22,11.42 4.34,22.78 6.53,34.12 28.55,-63.22 61.32,-132.87 98.48,-209.02l554.64 -1133.18 12.95 -26.54 430.26 0 -34.69 69.02 -934.73 1857.36 -12.98 25.78 -360.01 0 -9.1 -35.84 0 0zm2672.17 -656.78l320.36 39.94 60.97 7.58 -22.4 56.97c-39.17,99.51 -88.4,187.89 -147.67,265.07 -59.56,77.61 -129.22,144.04 -208.96,199.31l0.04 0.04 -0.14 0.14 -0.57 0.34c-22.12,15.19 -45.23,29.53 -69.4,43.03 -24.38,13.6 -48.9,25.85 -73.36,36.74 -128.41,56.92 -273.68,85.53 -435.42,85.53l-0.18 0 0 -0.17c-141.88,-0.04 -266.92,-22.16 -375.11,-66.31 -18.07,-7.33 -35.43,-15.25 -52.05,-23.55 -87.26,-43.73 -161.92,-103.18 -223.85,-178.19 -74.25,-89.66 -124.81,-196.92 -151.65,-321.8 -26.26,-122.38 -29.65,-261.74 -10.16,-418.19l0 -0.18c20.24,-161.29 59.06,-304.7 116.33,-430.17 57.9,-126.77 134.58,-235.42 230.13,-325.94 95.8,-90.42 201.37,-158.41 316.61,-203.89 115.34,-45.44 239.97,-68.23 374.2,-68.23l0.17 0 0 0.21c131.09,0.04 247.67,22.49 349.68,67.4 16.51,7.3 32.92,15.3 49.15,24.09 82.11,44.03 153.7,104.09 214.84,179.94l0.07 -0.11 0.22 0.28c20.32,25.22 39.02,52.21 56.03,80.79 16.97,28.58 31.97,58.24 44.81,88.92 66.16,157.15 85,350.37 56.63,579.06l0 0.21 -0.03 0.42 -1.13 8.61 0 0.38 -1.34 9.61 0 0.21c-2.05,15.33 -5.4,37.32 -9.92,66.33l-6.28 40.03 -1380.52 0c-0.39,12.55 -0.63,24.62 -0.56,36.09 0.07,24.29 1.16,48.79 3.31,73.6 10.09,117.57 44.36,211.41 102.89,281.22l0.18 0c40.61,48.76 88.04,85.17 142.41,109.3 54.76,24.28 117.64,36.46 188.71,36.46l0.24 0 0 0.21c52.86,0 102.79,-7.03 149.75,-21.02 7.06,-2.11 14.54,-4.55 22.33,-7.3 38.32,-13.55 74.39,-31.84 108.18,-54.86l0.18 -0.2c40.51,-27.3 78.37,-63.31 113.72,-107.92 36.42,-45.95 69.86,-100.53 100.46,-163.69l14.81 -30.45 33.28 4.12 0 0zm-915.93 -509.62l930.96 0c-0.04,-5.55 -0.11,-10.97 -0.18,-16.27 -0.39,-17.67 -1.44,-36.17 -3.14,-55.41 -7.62,-87.58 -28.94,-155.87 -63.65,-204.39l-0.42 -0.52 -0.04 0.04 -0.21 -0.39 -0.25 -0.27 -0.1 -0.1 0.03 -0.04c-10.65,-15.09 -21.8,-29.04 -33.45,-41.72 -11.78,-12.89 -24.31,-24.76 -37.55,-35.64 -67.46,-55.58 -153.1,-83.45 -256.59,-83.45l-0.17 0 0 -0.21c-66.26,0.03 -128.76,11.12 -187.33,33.32 -9.81,3.72 -19.3,7.57 -28.2,11.67 -47.92,21.54 -93.26,51.04 -135.81,88.36l-0.43 0.38 -0.21 0.2 0 0c-13.93,12.23 -27.42,25.27 -40.3,39.01 -12.98,13.85 -25.12,28.23 -36.41,42.94 -48.38,63.12 -83.88,137.35 -106.56,222.5l0 0zm1509.99 1148.84l231.89 -1857.4 5.19 -41.14 378.04 0 -6.66 53.24 -14.64 118.22c59.41,-54.68 123.78,-98.9 193.15,-132.63 111.46,-54.28 235.03,-81.44 370.81,-81.44l0 0.21c59.17,0 115.31,5.42 168.55,16.1 54.02,10.8 104.73,26.98 152.04,48.29l0.22 0.18c48.62,22.16 90.36,47.67 125.26,76.64 36.03,29.99 64.96,63.79 86.98,101.51l-0.03 0c21.55,35.82 38.57,75.03 51.19,117.5 12.53,42.15 20.71,87.11 24.85,134.74l0 0.73 0.04 0.81c0.6,7.96 0.98,17.91 1.05,29.84 0.18,10.8 0.07,22.16 -0.14,34.06 -1.55,61.23 -8.92,144.85 -22.12,250.65l-0.03 0 -142.24 1141.89 -5.15 41.56 -410.67 0 6.66 -53.38 141 -1130.18c7.66,-61.88 11.5,-115.95 11.47,-161.91l0 -0.18c-0.07,-43.72 -3.78,-79.83 -11.08,-108.23l0.07 0c-1.9,-7.29 -4.2,-14.32 -6.7,-21 -2.4,-6.39 -5.29,-13 -8.68,-19.75l-0.07 0.03c-16.62,-32.95 -41.96,-60.72 -75.73,-82.94l-0.14 0c-24.6,-16.22 -52.11,-28.4 -82.53,-36.67 -31.27,-8.36 -65.95,-12.64 -104.09,-12.64 -61.78,0 -120.28,9.86 -175.51,29.3 -55.75,19.66 -108.54,49.12 -158.36,88.21l0.07 0.07c-47.71,37.7 -87.16,93.14 -118.34,166.5 -32.75,76.98 -56.21,172.63 -70.32,286.9l0 0.2 -126.64 1014.31 -5.15 41.38 -410.15 0 6.67 -53.57 0 0zm2808.54 -268.61l-41.54 286.28 -5.22 35.75 -35.92 4.34c-27.6,3.29 -49.08,6.47 -68.1,9.23 -43.96,6.44 -75.76,11.12 -126.43,11.12 -60.01,0 -113.33,-4.85 -160.08,-14.63 -48.27,-10.1 -89.49,-25.62 -123.5,-46.56l0 0.02 -0.22 -0.09 -0.52 -0.37c-10.23,-6.32 -19.23,-12.31 -26.86,-18.03 -7.69,-5.72 -15.81,-12.47 -24.31,-20.08 -40.51,-36.59 -68.62,-80.4 -84.08,-131.23l-0.39 -1.13c-3.18,-10.5 -5.82,-22.26 -7.9,-35.22 -1.84,-11.74 -3.32,-25.3 -4.34,-40.48 -4.84,-71.2 1.13,-176.09 18.27,-314.02l0 -0.16 126.78 -1015.25 -231.15 0 6.6 -53.23 30.49 -244.83 5.18 -41.56 231.09 0 52.29 -418.9 2.89 -23.61 20.78 -11.6 337.15 -188.67 81.83 -45.83 -11.64 93.29 -74.39 595.32 316.54 0 -6.71 53.62 -30.59 244.79 -5.22 41.37 -316.29 0 -130.31 1044.64 -0.32 2.55c-1.2,9.58 -2.51,21.12 -3.92,34.63 -0.91,8.64 -1.87,18.88 -2.82,30.64 -3.63,44.97 -3.56,73.61 0.14,86.2l-0.03 0.09c2.4,6.96 5.78,13.28 10.05,18.9 4.45,5.86 9.88,11 16.48,15.55l0.31 0.16c1.73,1.11 3.57,2.14 5.47,3.03 2.36,1.18 4.83,2.25 7.34,3.13 15.94,5.81 37.93,8.79 65.98,8.79 17.71,0 36.77,-0.92 57.26,-2.71 20.99,-1.9 46.26,-4.96 75.94,-9.21l6.67 -0.57 0.03 0 55.12 -0.04 -7.9 54.57 0 0z"/>
  </g>
 </g>
</svg>
