<?xml version="1.0" standalone="no"?>
<!DOCTYPE svg PUBLIC "-//W3C//DTD SVG 20010904//EN"
 "http://www.w3.org/TR/2001/REC-SVG-20010904/DTD/svg10.dtd">
<svg version="1.0" xmlns="http://www.w3.org/2000/svg"
 width="800.000000pt" height="197.000000pt" viewBox="0 0 800.000000 197.000000"
 preserveAspectRatio="xMidYMid meet">

<g transform="translate(0.000000,197.000000) scale(0.100000,-0.100000)"
fill="#000000" stroke="none">
<path d="M608 1570 c-110 -96 -217 -276 -259 -435 -30 -115 -31 -298 -1 -418
35 -143 104 -275 194 -374 l38 -43 0 145 0 145 204 0 203 0 12 -59 c22 -112
76 -163 179 -169 56 -3 74 0 111 20 61 33 94 94 88 161 -8 90 -56 126 -262
198 -333 117 -485 252 -532 473 -23 113 1 274 57 364 11 17 18 32 16 32 -2 0
-24 -18 -48 -40z"/>
<path d="M1778 1443 l-3 -138 -199 0 -199 0 -12 48 c-23 91 -80 137 -168 137
-97 0 -167 -67 -167 -159 0 -106 39 -135 295 -221 170 -57 237 -88 312 -145
101 -75 163 -172 189 -294 26 -123 10 -249 -46 -369 -16 -35 -30 -67 -30 -70
0 -4 27 20 61 53 113 111 180 216 230 365 28 84 33 111 37 231 7 213 -32 361
-138 522 -49 76 -136 177 -151 177 -4 0 -10 -62 -11 -137z"/>
<path d="M3160 1470 l0 -80 75 0 75 0 0 80 0 80 -75 0 -75 0 0 -80z"/>
<path d="M6720 1475 l0 -75 75 0 75 0 0 75 0 75 -75 0 -75 0 0 -75z"/>
<path d="M2592 1264 c-83 -41 -132 -121 -132 -212 0 -103 78 -187 220 -236
111 -39 136 -67 109 -119 -16 -30 -28 -37 -70 -37 -40 0 -66 22 -78 66 -7 29
-7 29 -92 29 l-84 0 0 -125 0 -125 73 -3 c55 -2 74 0 78 11 4 12 11 11 42 -4
20 -11 57 -19 83 -19 142 0 249 104 249 244 0 115 -57 184 -188 227 -135 44
-166 72 -139 128 27 56 112 50 123 -9 l7 -30 89 0 89 0 -3 113 -3 112 -68 3
c-51 2 -69 -1 -73 -11 -4 -12 -11 -11 -42 4 -53 28 -127 25 -190 -7z"/>
<path d="M3827 1279 c-20 -6 -60 -31 -87 -56 l-50 -45 0 51 0 52 -137 -3 -138
-3 -3 -82 -3 -83 51 0 50 0 0 -220 0 -220 -95 0 -95 0 -2 303 -3 302 -137 3
-138 3 0 -86 0 -85 50 0 50 0 0 -220 0 -220 -50 0 -50 0 0 -85 0 -85 375 0
375 0 0 85 0 85 -51 0 -51 0 4 169 c3 188 7 200 78 249 39 26 125 30 168 8 75
-39 92 -96 92 -303 l0 -123 -50 0 -50 0 0 -85 0 -85 188 2 187 3 3 83 3 82
-56 0 -55 0 0 198 c0 108 -5 214 -10 234 -29 101 -136 178 -257 184 -37 2 -85
-2 -106 -7z"/>
<path d="M4553 1271 c-286 -104 -358 -466 -133 -674 81 -76 148 -101 265 -102
81 0 97 3 157 32 106 50 194 145 223 241 6 22 6 22 -99 22 l-105 0 -21 -30
c-40 -56 -131 -89 -198 -71 -91 25 -149 96 -159 193 -4 45 0 62 24 108 63 124
219 145 320 43 l44 -43 90 0 90 0 -3 143 -3 142 -77 3 -78 3 0 -37 0 -37 -24
22 c-62 59 -211 78 -313 42z"/>
<path d="M5965 1270 c-159 -53 -266 -201 -269 -370 0 -41 2 -90 6 -107 l8 -33
-95 0 -95 0 0 -40 0 -40 -70 0 -70 0 0 214 0 215 38 3 37 3 0 80 0 80 -170 0
-170 0 0 -80 0 -80 38 -3 37 -3 0 -219 0 -219 -37 -3 -38 -3 0 -80 0 -80 298
-3 297 -2 0 127 1 128 22 -45 c11 -25 48 -72 82 -106 80 -81 147 -108 265
-108 97 -1 161 22 218 76 l32 32 0 -52 0 -52 330 0 330 0 0 85 0 85 -50 0 -50
0 0 220 0 220 50 0 50 0 0 85 0 86 -137 -3 -138 -3 -3 -302 -2 -303 -100 0
-100 0 0 220 0 220 50 0 51 0 -3 83 -3 82 -137 3 -138 3 0 -52 0 -51 -35 31
c-89 78 -211 101 -330 61z m246 -187 c192 -104 127 -395 -91 -411 -81 -6 -138
16 -189 74 -75 86 -77 199 -3 284 71 83 188 105 283 53z"/>
<path d="M7060 1196 l0 -86 35 0 35 0 0 -220 0 -220 -35 0 -35 0 0 -85 0 -86
158 3 157 3 0 80 c0 75 -1 80 -22 83 -20 3 -23 9 -23 54 0 28 2 49 5 46 3 -3
45 -63 93 -134 l88 -129 99 0 100 0 0 80 0 80 -41 5 c-35 4 -48 13 -82 54
l-40 49 41 22 c91 47 136 174 104 286 -24 81 -65 132 -134 165 -58 29 -59 29
-280 32 l-223 4 0 -86z m424 -127 c43 -51 30 -136 -25 -165 -16 -8 -51 -14
-79 -14 l-50 0 0 105 0 105 64 0 c59 0 66 -2 90 -31z"/>
</g>
</svg>
